Coordinates
version=1
nRows=6
nColumns=34
inDegrees=yes

Units are S.I. units (second, meters, Newtons, ...)
If the header above contains a line with 'inDegrees', this indicates whether rotational values are in degrees (yes) or radians (no).

endheader
time	pelvis_tilt	pelvis_list	pelvis_rotation	pelvis_tx	pelvis_ty	pelvis_tz	hip_flexion_r	hip_adduction_r	hip_rotation_r	knee_angle_r	ankle_angle_r	subtalar_angle_r	mtp_angle_r	hip_flexion_l	hip_adduction_l	hip_rotation_l	knee_angle_l	ankle_angle_l	subtalar_angle_l	mtp_angle_l	lumbar_extension	lumbar_bending	lumbar_rotation	arm_flex_r	arm_add_r	arm_rot_r	elbow_flex_r	pro_sup_r	arm_flex_l	arm_add_l	arm_rot_l	elbow_flex_l	pro_sup_l
      0.00000000	    -15.72287239	     -1.18637904	    -22.12196649	      0.12034432	      0.46409725	     -0.01161041	     93.70918931	     -9.84483380	     -0.10206095	    135.37096276	     31.68745438	    -19.37647046	      0.00000000	    116.57713406	    -18.97319990	      7.57357811	     63.40604608	     -9.28054899	     -6.45717306	      0.00000000	    -18.60041516	      0.96832727	     -7.61761973	    167.67340972	     22.06299873	     89.63284401	     20.70915552	     44.12192835	     93.94827773	    -38.74480282	     47.14654869	     21.26573043	     63.16613191
      0.01666670	    -10.62788427	     -6.11407749	    -19.55424273	      0.13074236	      0.47453910	     -0.01806108	     85.72484341	    -12.96893029	     -2.12352341	    136.85096913	     11.55836998	    -19.47043267	      0.00000000	    113.57975462	    -13.63268967	      9.33445151	     66.89738562	     -9.47310366	    -12.60925378	      0.00000000	    -27.49027214	     -2.89005742	    -11.78912088	    166.72638309	      8.30137045	     79.45394688	     29.86656620	     58.71993179	    110.41502710	    -31.40677398	     66.10037539	      9.58211610	     66.30261746
      0.03333330	     -6.58783430	     -7.23389062	    -16.97280976	      0.13681603	      0.47793621	     -0.02465328	     81.57699105	    -16.91922397	     -1.83622180	    136.70696748	      8.08568242	    -13.54486086	      0.00000000	    108.33288943	    -11.43004622	      8.70090302	     63.64113535	    -12.03285171	    -16.52608378	      0.00000000	    -36.02818595	     -5.06262363	    -18.53875392	    165.30930239	      3.66736061	     62.18559029	     35.42799076	     87.09418984	    121.59382075	    -32.35460958	     84.64393402	      7.49644103	     41.24695394
      0.05000000	     -7.04422409	     -7.69406818	    -15.59416341	      0.13929976	      0.47766998	     -0.02863119	     79.97801115	    -19.22365021	     -3.14172004	    136.24110843	      6.83129676	    -12.10579265	      0.00000000	    109.06008246	     -9.60514599	      9.53406901	     65.42580827	    -11.74566116	    -17.60075067	      0.00000000	    -38.80982349	     -4.57411712	    -21.40129428	    164.29343389	      2.49025594	     54.95213192	     39.81113907	     84.87011339	    125.91543510	    -33.30844723	     82.49164136	      9.80818293	     36.12141063
      0.06666670	     -7.49531858	     -7.82439775	    -14.68115043	      0.14025862	      0.47286207	     -0.03159615	     79.78511335	    -20.19636693	     -3.34454722	    135.80793587	      6.83206905	    -10.45166146	      0.00000000	    110.03160442	     -8.50350622	      9.22908781	     66.33354446	    -10.71996298	    -17.77207299	      0.00000000	    -40.56216108	     -4.78899572	    -22.78023170	    161.60104192	      1.41826585	     47.67492671	     45.83263765	     83.96515502	    127.31254928	    -33.06819658	     79.84868379	     12.09161448	     33.81486148
      0.08333330	     -8.34849665	     -7.82585001	    -14.31503039	      0.13350231	      0.47065076	     -0.03895085	     80.42768090	    -20.55656635	     -3.22021122	    135.14116419	      7.42963719	     -8.65966962	      0.00000000	    110.89409369	     -7.49881703	      8.83410970	     66.09292506	    -10.78012974	    -17.81523651	      0.00000000	    -42.56053648	     -4.87040098	    -23.80551287	    159.08376785	      3.32856667	     36.53194569	     48.42841248	     83.26666575	    129.10813842	    -31.58396685	     76.81160809	     12.86326020	     32.28792296
